

<svg xmlns="http://www.w3.org/2000/svg" xml:space="preserve" width="2480px" height="3508px" version="1.1" style="shape-rendering:geometricPrecision; text-rendering:geometricPrecision; image-rendering:optimizeQuality; fill-rule:evenodd; clip-rule:evenodd"
viewBox="0 0 2480 3507"
 xmlns:xlink="http://www.w3.org/1999/xlink"
 xmlns:xodm="http://www.corel.com/coreldraw/odm/2003">
 <g id="Layer_x0020_1">
  <metadata id="CorelCorpID_0Corel-Layer"/>
  <rect class="fil0" x="-16" y="498" width="2512" height="2512"/>
  <path class="fil1" d="M1565 1422c8,-2 31,0 40,0 18,1 52,7 69,13 15,5 30,10 45,17 8,4 19,9 27,14 21,12 43,29 58,44 2,2 4,2 6,5 2,2 3,3 5,5l10 11c36,41 57,80 72,133 7,23 10,46 11,71 0,3 1,5 1,9 0,8 0,11 -1,20 0,3 0,7 0,10 -2,24 -6,47 -13,70 -13,44 -42,98 -75,130 -4,3 -6,7 -10,11l-22 19c-34,27 -79,52 -122,63 -17,4 -35,8 -52,10 -20,2 -57,3 -77,-1 -6,-1 -12,-2 -18,-3 -25,-4 -70,-18 -92,-32 -4,-2 -9,-5 -13,-7 -15,-9 -36,-22 -48,-34l-11 -9c-7,-5 -28,-30 -35,-37l-21 -30c-15,-23 -30,-58 -37,-86 -8,-32 -8,-39 -11,-70 -1,-13 0,-28 0,-40 0,-4 1,-15 2,-19 1,-3 1,-6 1,-9 1,-3 1,-5 2,-8 3,-22 11,-44 19,-64 9,-23 26,-52 41,-72l23 -28c6,-7 16,-15 21,-20l23 -19c39,-29 79,-47 127,-58 19,-4 18,-3 35,-6 6,-1 14,0 19,-1zm-695 155c-12,-1 -27,0 -40,0 -26,0 -52,0 -78,0 -19,0 -18,1 -36,-3 -9,-2 -20,-9 -25,-14 -2,-2 -4,-3 -6,-5 -11,-12 -21,-30 -21,-47 0,-15 1,-21 6,-33 7,-18 22,-32 39,-39 12,-5 20,-5 34,-5l353 0c17,0 64,-1 77,2 20,4 37,19 46,33 30,50 -5,113 -62,112 -14,0 -112,-1 -117,0l-1 369c0,16 1,58 -2,71 -10,38 -41,66 -82,66 -42,0 -74,-31 -82,-66 -4,-18 -2,-50 -2,-72l0 -222c0,-10 1,-140 0,-147zm1211 205c3,-52 -2,-103 -14,-149 -12,-45 -25,-76 -48,-116 -20,-36 -47,-68 -71,-93 -72,-74 -171,-124 -275,-136 -34,-4 -44,-4 -78,-4l-657 0c-27,0 -55,0 -82,0 -27,0 -50,3 -75,7 -36,6 -91,22 -124,40 -9,5 -18,9 -27,14 -9,5 -17,11 -26,16 -30,19 -66,50 -89,76 -16,18 -32,37 -45,58 -26,41 -45,80 -58,126 -10,37 -15,65 -17,105 -6,102 20,195 62,266 23,38 41,62 71,93 23,24 58,53 92,72 18,11 34,19 54,28 17,8 41,16 61,22 23,6 43,11 69,14 26,3 50,4 78,4 109,0 219,0 328,0 137,0 275,1 411,0 48,0 95,-9 140,-24 96,-30 180,-96 236,-175 23,-33 41,-67 56,-108 17,-45 25,-88 28,-137z"/>
 </g>
</svg>
